<svg xmlns="http://www.w3.org/2000/svg" xmlns:xlink="http://www.w3.org/1999/xlink" width="500" zoomAndPan="magnify" viewBox="0 0 375 374.999991" height="500" preserveAspectRatio="xMidYMid meet" version="1.0"><defs><clipPath id="4bb5650f8f"><path d="M 12 43.15625 L 365.359375 43.15625 L 365.359375 320 L 12 320 Z M 12 43.15625 " clip-rule="nonzero"/></clipPath></defs><g clip-path="url(#4bb5650f8f)"><path fill="#38b000" d="M 329.402344 141.257812 C 324.449219 141.257812 320.429688 145.277344 320.429688 150.230469 C 320.429688 155.1875 324.449219 159.203125 329.402344 159.203125 C 334.363281 159.203125 338.378906 155.1875 338.378906 150.230469 C 338.378906 145.277344 334.363281 141.257812 329.402344 141.257812 M 237.875 51.652344 C 226.757812 51.652344 217.75 60.65625 217.75 71.769531 C 217.75 82.878906 226.757812 91.886719 237.875 91.886719 C 248.988281 91.886719 257.996094 82.878906 257.996094 71.769531 C 257.996094 60.65625 248.988281 51.652344 237.875 51.652344 M 53.375 205.5 C 46.023438 205.5 40.066406 211.457031 40.066406 218.804688 C 40.066406 226.148438 46.023438 232.105469 53.375 232.105469 C 60.722656 232.105469 66.683594 226.148438 66.683594 218.804688 C 66.683594 211.457031 60.722656 205.5 53.375 205.5 M 350.015625 234.632812 C 341.53125 234.632812 334.660156 241.503906 334.660156 249.980469 C 334.660156 258.453125 341.53125 265.328125 350.015625 265.328125 C 358.492188 265.328125 365.367188 258.453125 365.367188 249.980469 C 365.367188 241.503906 358.492188 234.632812 350.015625 234.632812 M 226.90625 170.710938 C 223.855469 170.710938 221.382812 173.183594 221.382812 176.230469 C 221.382812 179.28125 223.855469 181.75 226.90625 181.75 C 229.953125 181.75 232.425781 179.28125 232.425781 176.230469 C 232.425781 173.183594 229.953125 170.710938 226.90625 170.710938 M 204.085938 177.21875 C 199.542969 177.21875 195.863281 180.902344 195.863281 185.4375 C 195.863281 189.976562 199.542969 193.65625 204.085938 193.65625 C 208.625 193.65625 212.308594 189.976562 212.308594 185.4375 C 212.308594 180.902344 208.625 177.21875 204.085938 177.21875 M 225.628906 190.660156 C 218.867188 190.660156 213.386719 196.136719 213.386719 202.898438 C 213.386719 209.65625 218.867188 215.136719 225.628906 215.136719 C 232.394531 215.136719 237.875 209.65625 237.875 202.898438 C 237.875 196.136719 232.394531 190.660156 225.628906 190.660156 M 262.941406 211.035156 C 262.941406 165.902344 226.339844 129.316406 181.1875 129.316406 C 136.039062 129.316406 99.441406 165.902344 99.441406 211.035156 C 99.441406 256.167969 136.039062 292.757812 181.1875 292.757812 C 226.339844 292.757812 262.941406 256.167969 262.941406 211.035156 M 296.699219 120.714844 L 263.683594 143.902344 C 267.828125 148.988281 271.5625 154.535156 274.804688 160.519531 C 292.980469 194.09375 291.238281 232.953125 273.546875 263.6875 L 294.121094 275.046875 C 296.234375 272.828125 298.769531 270.941406 301.683594 269.515625 C 314.816406 263.121094 330.648438 268.570312 337.046875 281.691406 C 343.449219 294.816406 338 310.644531 324.867188 317.042969 C 311.742188 323.441406 295.90625 317.992188 289.503906 304.871094 C 286.652344 299.019531 286.160156 292.632812 287.644531 286.785156 L 266.113281 274.894531 C 257.347656 286.425781 246.050781 296.347656 232.484375 303.769531 C 181.175781 331.828125 116.816406 313 88.742188 261.703125 C 88.007812 260.359375 87.3125 259.007812 86.644531 257.648438 L 64.484375 268 C 65.035156 271.011719 65.074219 274.171875 64.507812 277.363281 C 61.957031 291.738281 48.234375 301.332031 33.851562 298.785156 C 19.46875 296.238281 9.875 282.519531 12.421875 268.140625 C 14.972656 253.761719 28.695312 244.175781 43.078125 246.722656 C 49.488281 247.855469 54.941406 251.210938 58.800781 255.855469 L 81.488281 245.261719 C 69.726562 211.128906 76.4375 173.789062 97.910156 146.042969 C 102.367188 140.285156 103.011719 132.4375 99.511719 126.035156 L 78.269531 87.222656 C 77.40625 85.652344 75.355469 84.953125 73.792969 85.816406 C 72.644531 86.449219 71.335938 86.554688 70.167969 86.21875 C 69.003906 85.871094 67.964844 85.082031 67.339844 83.929688 C 66.707031 82.78125 66.605469 81.488281 66.941406 80.320312 C 67.289062 79.15625 68.074219 78.117188 69.222656 77.496094 L 129.75 44.394531 C 131.957031 43.1875 134.808594 43.777344 136.167969 45.898438 C 136.957031 47.121094 137.105469 48.542969 136.746094 49.808594 C 136.394531 50.96875 135.609375 52.011719 134.464844 52.636719 C 133.675781 53.066406 133.132812 53.777344 132.894531 54.585938 C 132.660156 55.390625 132.730469 56.28125 133.167969 57.070312 L 135.546875 61.425781 C 136.058594 62.363281 135.71875 63.542969 134.773438 64.054688 L 126.339844 68.671875 C 125.464844 69.144531 124.859375 69.933594 124.601562 70.824219 C 124.34375 71.710938 124.421875 72.6875 124.902344 73.5625 C 125.855469 75.304688 128.046875 75.949219 129.796875 74.992188 L 138.234375 70.378906 C 139.175781 69.859375 140.355469 70.207031 140.871094 71.144531 L 142.972656 74.984375 C 143.484375 75.925781 143.140625 77.101562 142.199219 77.613281 L 133.753906 82.234375 C 132.554688 82.890625 131.882812 84.128906 131.882812 85.398438 C 131.882812 85.980469 132.019531 86.578125 132.320312 87.121094 C 133.277344 88.871094 135.472656 89.515625 137.222656 88.554688 L 145.660156 83.945312 C 146.601562 83.433594 147.785156 83.773438 148.296875 84.71875 L 150.398438 88.546875 C 150.910156 89.492188 150.566406 90.667969 149.625 91.1875 L 141.1875 95.800781 C 140.3125 96.277344 139.710938 97.0625 139.453125 97.953125 C 139.191406 98.835938 139.273438 99.828125 139.75 100.695312 C 140.703125 102.4375 142.890625 103.078125 144.648438 102.121094 L 153.234375 97.417969 C 154.101562 96.949219 155.175781 97.214844 155.757812 98.015625 C 159.511719 103.136719 165.726562 106.003906 172.183594 105.429688 C 199.808594 102.960938 227.515625 111.496094 248.988281 129.160156 L 284.898438 103.949219 C 283.257812 99.554688 282.363281 94.804688 282.363281 89.847656 C 282.363281 67.511719 300.472656 49.410156 322.8125 49.410156 C 345.152344 49.410156 363.261719 67.511719 363.261719 89.847656 C 363.261719 112.175781 345.152344 130.28125 322.8125 130.28125 C 312.855469 130.28125 303.746094 126.679688 296.699219 120.714844 M 247.257812 220.371094 C 249.039062 218.773438 251.867188 220.285156 251.480469 222.644531 C 245.941406 256.453125 216.574219 282.246094 181.1875 282.246094 C 141.84375 282.246094 109.957031 250.367188 109.957031 211.035156 L 109.957031 211.007812 C 109.960938 209.019531 110.761719 207.097656 112.1875 205.710938 C 128.074219 190.230469 155.160156 201.230469 181.816406 212.226562 C 207.476562 222.820312 232.75 233.40625 247.257812 220.371094 " fill-opacity="1" fill-rule="evenodd"/></g><path fill="#cedfe1" d="M 229.71875 226.40625 C 216 226.40625 198.996094 219.316406 181.816406 212.226562 C 164.90625 205.25 147.824219 198.277344 133.539062 198.054688 C 147.835938 198.261719 164.925781 205.246094 181.855469 212.226562 C 199.03125 219.316406 216.039062 226.40625 229.753906 226.40625 C 230.082031 226.40625 230.410156 226.402344 230.730469 226.394531 C 230.394531 226.402344 230.0625 226.40625 229.71875 226.40625 " fill-opacity="1" fill-rule="nonzero"/><path fill="#007200" d="M 218.074219 234.632812 C 202.660156 234.632812 185.757812 226.601562 169.46875 218.574219 C 153.183594 210.546875 137.511719 202.515625 124.5625 202.515625 C 120.09375 202.515625 115.953125 203.472656 112.21875 205.710938 C 117.867188 200.210938 124.933594 198.050781 132.890625 198.050781 C 133.105469 198.050781 133.324219 198.050781 133.539062 198.054688 C 147.824219 198.277344 164.90625 205.25 181.816406 212.226562 C 198.996094 219.316406 216 226.40625 229.71875 226.40625 C 230.0625 226.40625 230.394531 226.402344 230.730469 226.394531 C 237.101562 226.234375 242.726562 224.46875 247.292969 220.371094 C 238.742188 230.765625 228.765625 234.628906 218.074219 234.632812 " fill-opacity="1" fill-rule="nonzero"/></svg>